<?xml version="1.0" encoding="UTF-8"?>
<svg width="17px" height="18px" viewBox="0 0 17 18" version="1.1" xmlns="http://www.w3.org/2000/svg" xmlns:xlink="http://www.w3.org/1999/xlink">
    <!-- Generator: Sketch 46.2 (44496) - http://www.bohemiancoding.com/sketch -->
    <title>cog</title>
    <desc>Created with Sketch.</desc>
    <defs></defs>
    <g id="Page-1" stroke="none" stroke-width="1" fill="none" fill-rule="evenodd">
        <g id="Desktop" transform="translate(-967.000000, -327.000000)">
            <g id="cog" transform="translate(966.000000, 326.000000)">
                <rect id="Rectangle-path" x="0" y="0" width="20" height="20"></rect>
                <path d="M16.285,9.912 C16.285,8.875 16.923,8.057 17.885,7.494 C17.712,6.915 17.482,6.36 17.2,5.838 C16.122,6.12 15.249,5.698 14.516,4.964 C13.783,4.23 13.558,3.358 13.84,2.279 C13.318,1.997 12.763,1.767 12.184,1.594 C11.621,2.555 10.605,3.194 9.568,3.194 C8.531,3.194 7.514,2.556 6.951,1.594 C6.372,1.767 5.818,1.996 5.296,2.279 C5.578,3.357 5.354,4.23 4.62,4.964 C3.886,5.698 3.014,6.12 1.936,5.838 C1.653,6.359 1.424,6.914 1.251,7.493 C2.212,8.055 2.851,8.874 2.851,9.911 C2.851,10.948 2.213,11.965 1.251,12.528 C1.424,13.107 1.653,13.661 1.936,14.184 C3.014,13.902 3.887,14.126 4.62,14.86 C5.353,15.594 5.578,16.466 5.296,17.544 C5.818,17.826 6.372,18.056 6.952,18.229 C7.515,17.267 8.531,16.629 9.568,16.629 C10.605,16.629 11.621,17.267 12.184,18.229 C12.763,18.056 13.318,17.826 13.84,17.543 C13.558,16.465 13.782,15.593 14.516,14.859 C15.25,14.125 16.122,13.703 17.2,13.985 C17.482,13.463 17.712,12.908 17.885,12.329 C16.923,11.768 16.285,10.949 16.285,9.912 L16.285,9.912 Z M9.568,13.529 C7.57,13.529 5.951,11.91 5.951,9.912 C5.951,7.915 7.57,6.295 9.568,6.295 C11.566,6.295 13.185,7.915 13.185,9.912 C13.185,11.91 11.565,13.529 9.568,13.529 L9.568,13.529 Z" id="Shape" fill="#666666"></path>
            </g>
        </g>
    </g>
</svg>