<?xml version="1.0" encoding="UTF-8"?>
<svg width="17px" height="18px" viewBox="0 0 17 18" version="1.1" xmlns="http://www.w3.org/2000/svg" xmlns:xlink="http://www.w3.org/1999/xlink">
    <!-- Generator: Sketch 46.2 (44496) - http://www.bohemiancoding.com/sketch -->
    <title>edit-cut</title>
    <desc>Created with Sketch.</desc>
    <defs></defs>
    <g id="Page-1" stroke="none" stroke-width="1" fill="none" fill-rule="evenodd">
        <g id="Desktop" transform="translate(-817.000000, -448.000000)">
            <g id="edit-cut" transform="translate(815.000000, 447.000000)">
                <rect id="Rectangle-path" x="0" y="0" width="20" height="20"></rect>
                <path d="M11.1803948,4.84327196 C11.1803948,5.65028581 11.4336648,6.39820868 11.8655117,7.01613141 C11.8655117,7.01613141 10.9212722,8.21267466 10.5000001,8.21267466 C10.0112172,8.21267466 9.13534657,7.01613141 9.13534657,7.01613141 C9.56719344,6.39820868 9.82046347,5.64944165 9.82046347,4.84327196 C9.82046347,2.72021776 8.06989535,0.998138005 5.90980246,0.998138005 C3.75056812,0.998138005 2,2.72021776 2,4.84327196 C2,6.96717032 3.75056812,8.68840592 5.90980246,8.68840592 C5.90980246,8.68840592 9.02797377,9.42147697 8.82839494,10.2284908 C7.78608937,12.189933 3.94004993,16.5833822 5.41701506,18.9898565 C5.48117275,19.094391 10.4355084,11.9108379 10.5000001,12.015138 C12.3471161,15.0024132 14.8726385,19.2344576 15.0910559,18.9898565 C17.1328511,16.7032922 13.1822887,13.1390997 12.3202443,10.2284908 C12.3202443,9.56349 15.0901972,8.68840592 15.0901972,8.68840592 C17.2502901,8.68840592 18.9999997,6.96717032 18.9999997,4.84327196 C19.0008582,2.72021776 17.2502901,0.998138005 15.0910558,0.998138005 C12.9309629,0.998138005 11.1803948,2.72021776 11.1803948,4.84327196 Z M3.69991411,4.84327196 C3.69991411,3.64288108 4.6898136,2.67041251 5.90980246,2.67041251 C7.13064987,2.67041251 8.11969081,3.64288108 8.11969081,4.84327196 C8.11969081,6.04366285 7.13064987,7.01613141 5.90980246,7.01613141 C4.6898136,7.01613141 3.69991411,6.04366285 3.69991411,4.84327196 L3.69991411,4.84327196 Z M12.8811674,4.84327196 C12.8811674,3.64288108 13.8702084,2.67041251 15.0910558,2.67041251 C16.3119032,2.67041251 17.3009441,3.64288108 17.3009441,4.84327196 C17.3009441,6.04366285 16.3110446,7.01613141 15.0910558,7.01613141 C13.8702084,7.01613141 12.8811674,6.04366285 12.8811674,4.84327196 Z" id="Shape" fill="#666666" transform="translate(10.500000, 9.999069) scale(1, -1) translate(-10.500000, -9.999069) "></path>
            </g>
        </g>
    </g>
</svg>