<?xml version="1.0" encoding="UTF-8"?>
<svg width="60px" height="60px" viewBox="0 0 60 60" version="1.1" xmlns="http://www.w3.org/2000/svg" xmlns:xlink="http://www.w3.org/1999/xlink">
    <!-- Generator: Sketch 46.2 (44496) - http://www.bohemiancoding.com/sketch -->
    <title>eraser</title>
    <desc>Created with Sketch.</desc>
    <defs>
        <path d="M27.2614031,11.5723726 L49.3616941,7.93334495 C49.3616941,7.93334495 50.3985302,7.74148181 51.7667052,8.52292646 C53.1348802,9.30437111 53.3947217,10.2368426 53.3947217,10.2368426 L59.8293876,27.3499134 C59.8293876,27.3499134 60.3226804,28.0258073 59.4661894,29.3353362 C58.6096984,30.644865 57.4397311,30.7308727 57.4397311,30.7308727 L35.6624007,33.9125358 L27.2614031,11.5723726 Z" id="path-1"></path>
    </defs>
    <g id="Page-1" stroke="none" stroke-width="1" fill="none" fill-rule="evenodd">
        <g id="Desktop" transform="translate(-832.000000, -34.000000)">
            <g id="eraser" transform="translate(827.000000, 30.000000)">
                <path d="M6.37308087,26.1180226 L12.6457541,43.4373926 C12.6554642,43.4486825 12.6659017,43.4607011 12.677067,43.4734099 C12.8662015,43.6886886 13.1083027,43.9123624 13.4036339,44.1251172 C13.5154142,44.2056431 13.6326631,44.2828841 13.7554685,44.3563368 C14.0265448,44.5184739 14.2318075,44.609203 14.3732419,44.6503234 L61.1206273,37.3557328 L61.3023315,37.3346308 C61.1699489,37.3447695 61.2110722,37.3296195 61.3193249,37.2265588 C61.3857633,37.1633069 61.4528698,37.0812432 61.5201044,36.9741472 C61.5607742,36.9093655 61.5912533,36.8558987 61.6136764,36.8132235 L55.2578314,19.2030688 L55.1984533,19.0137101 C55.2296081,19.1301871 55.2493805,19.1780539 55.2473158,19.1746535 C55.1883965,19.0776181 55.0823862,18.9570105 54.9082264,18.8216493 C54.8292365,18.7602564 54.7400678,18.699442 54.6396628,18.6396972 C54.21649,18.3878934 53.9188801,18.3253854 53.7762794,18.332434 L6.66014326,25.6845656 C6.65033783,25.6974321 6.63191114,25.7168304 6.60759951,25.7437124 C6.56952862,25.7858084 6.53159201,25.8356628 6.49409237,25.8949912 C6.43533748,25.9879476 6.39734879,26.0631707 6.37308087,26.1180226 Z" id="Rectangle" stroke="#666666" stroke-width="4.67020574" transform="translate(34.000000, 31.500000) rotate(-37.000000) translate(-34.000000, -31.500000) "></path>
                <g id="Rectangle-Copy" transform="translate(43.616069, 20.912536) rotate(-37.000000) translate(-43.616069, -20.912536) ">
                    <use fill="#666666" fill-rule="evenodd" xlink:href="#path-1"></use>
                    <path stroke="#666666" stroke-width="4.67020574" d="M51.2052398,11.0471039 C51.149863,10.9619994 51.048511,10.8527596 50.8802174,10.7272069 C50.8005537,10.6677751 50.7103625,10.6087318 50.6085827,10.5505994 C50.1731663,10.3019077 49.8556463,10.2376294 49.6933378,10.2452834 L30.4487331,13.4140946 L37.1860093,31.3300441 L57.1021569,28.4202994 L57.2685329,28.402054 C57.1515659,28.4106526 57.2083924,28.3905577 57.3199913,28.288575 C57.3839925,28.2300887 57.448033,28.1549171 57.5119574,28.0571802 C57.5336897,28.0239525 57.552052,27.9946265 57.567488,27.9690998 L51.2090225,11.0586848 L51.2052398,11.0471039 Z"></path>
                </g>
            </g>
        </g>
    </g>
</svg>