<?xml version="1.0" encoding="UTF-8"?>
<svg width="19px" height="18px" viewBox="0 0 19 18" version="1.1" xmlns="http://www.w3.org/2000/svg" xmlns:xlink="http://www.w3.org/1999/xlink">
    <!-- Generator: Sketch 46.2 (44496) - http://www.bohemiancoding.com/sketch -->
    <title>exit</title>
    <desc>Created with Sketch.</desc>
    <defs></defs>
    <g id="Page-1" stroke="none" stroke-width="1" fill="none" fill-rule="evenodd">
        <g id="Desktop" transform="translate(-786.000000, -330.000000)">
            <g id="exit" transform="translate(785.000000, 329.000000)">
                <rect id="Rectangle-path" x="0" y="0" width="20" height="20"></rect>
                <path d="M11.39,16.863 L3.43,16.863 L3.43,3.002 L11.39,3.002 L11.39,5.972 L13.35,5.972 L13.35,3.002 C13.35,1.913 12.459,1.022 11.37,1.022 L3.45,1.022 C2.361,1.022 1.47,1.913 1.47,3.002 L1.47,16.863 C1.47,17.952 2.361,18.843 3.45,18.843 L11.37,18.843 C12.459,18.843 13.35,17.952 13.35,16.863 L13.35,14.883 L11.39,14.883 L11.39,16.863 L11.39,16.863 Z M19.291,10.427 L15.35,6.566 L15.35,8.942 L6.439,8.942 L6.439,11.912 L15.35,11.912 L15.35,14.288 L19.291,10.427 L19.291,10.427 Z" id="Shape" fill="#666666"></path>
            </g>
        </g>
    </g>
</svg>