<?xml version="1.0" encoding="UTF-8"?>
<svg width="15px" height="19px" viewBox="0 0 15 19" version="1.1" xmlns="http://www.w3.org/2000/svg" xmlns:xlink="http://www.w3.org/1999/xlink">
    <!-- Generator: Sketch 46.2 (44496) - http://www.bohemiancoding.com/sketch -->
    <title>grab-mode</title>
    <desc>Created with Sketch.</desc>
    <defs></defs>
    <g id="Page-1" stroke="none" stroke-width="1" fill="none" fill-rule="evenodd">
        <g id="Desktop" transform="translate(-715.000000, -556.000000)">
            <g id="grab-mode" transform="translate(713.000000, 556.000000)">
                <rect id="Rectangle-path" x="0" y="0" width="20" height="20"></rect>
                <path d="M7.63684089,16.455358 C7.9364072,17.4125936 10.2876663,15.7016839 12.3999067,14.2535709 C13.5656159,13.45455 16.2770609,11.7550596 16.2770609,10.8159856 L16.2770609,4.73624488 C16.2770609,3.60504681 11.9875107,2.94824673 8.7192827,2.94824673 C8.48280975,2.94824673 2.98469265,2.66126785 2.98469265,3.74480418 C2.98469265,4.82834051 8.34313495,4.30227614 8.34313495,4.73624492 C8.34313495,5.17021371 1.11705305,4.62703236 1.11706938,5.80712417 C1.11708571,6.98721598 8.34313495,6.67959667 8.34313495,7.035985 C8.34313495,7.39237333 0.409208848,7.1079603 0.409208848,8.63685158 C0.409208848,10.1657429 8.34313495,9.19175816 8.34313495,9.59203435 C8.34313495,10.3833763 1.35666014,9.92726162 1.35666014,11.0121827 C1.35666014,12.3326602 5.60308035,11.6956878 7.11240204,11.9602189 C8.34025602,12.1754186 9.88173976,12.2172627 9.99751528,12.5332799 C10.1132908,12.8492971 6.92797396,14.1902413 7.63684089,16.455358 Z M18.7777237,9.89396941 L18.7777237,5.58464343 C18.7777237,3.16513645 16.7282319,2.8984969 16.1520056,2.8984969 C15.5766632,2.8984969 17.0269504,3.40753603 17.0269504,4.90682237 L17.0269504,10.5717905 C17.0269504,12.1437967 15.5766632,12.6689958 16.1520056,12.6689958 C16.7273481,12.6689958 18.7777237,12.3134764 18.7777237,9.89396941 Z" id="Shape" fill="#666666" transform="translate(9.593466, 9.815743) rotate(90.000000) translate(-9.593466, -9.815743) "></path>
            </g>
        </g>
    </g>
</svg>