<?xml version="1.0" encoding="UTF-8"?>
<svg width="15px" height="18px" viewBox="0 0 15 18" version="1.1" xmlns="http://www.w3.org/2000/svg" xmlns:xlink="http://www.w3.org/1999/xlink">
    <!-- Generator: Sketch 46.2 (44496) - http://www.bohemiancoding.com/sketch -->
    <title>grab-mode</title>
    <desc>Created with Sketch.</desc>
    <defs></defs>
    <g id="Page-1" stroke="none" stroke-width="1" fill="none" fill-rule="evenodd">
        <g id="Desktop" transform="translate(-716.000000, -528.000000)">
            <g id="grab-mode" transform="translate(714.000000, 527.000000)">
                <rect id="Rectangle-path" x="0" y="0" width="20" height="20"></rect>
                <path d="M7.35027374,16.7419252 C7.64984005,17.6991608 10.0010992,15.9882511 12.1133396,14.540138 C13.2790488,13.7411172 15.9904937,12.0416267 15.9904937,11.1025528 L15.9904937,5.02281203 C15.9904937,3.89161396 11.7009435,3.23481388 8.43271555,3.23481388 C8.1962426,3.23481388 2.32106432,4.32608926 2.32106432,5.40962559 C2.32106432,6.49316191 8.20887383,5.34162759 8.13272082,6.17206016 C8.0565678,7.00249273 0.720003584,6.00832227 0.695834817,7.71913023 C0.67166605,9.42993819 8.10422443,8.62412541 8.13272082,9.17253064 C8.1612172,9.72093588 1.2406342,9.53381795 1.12099777,10.6466114 C0.979695021,11.9609333 5.31651319,11.982255 6.82583488,12.2467861 C8.05368887,12.4619858 9.5951726,12.5038298 9.71094812,12.8198471 C9.82672364,13.1358643 6.64140681,14.4768084 7.35027374,16.7419252 Z M18.4911565,10.1805366 L18.4911565,5.87121058 C18.4911565,3.4517036 16.4416647,3.18506406 15.8654385,3.18506406 C15.290096,3.18506406 16.7403832,3.69410319 16.7403832,5.19338952 L16.7403832,10.8583576 C16.7403832,12.4303638 15.290096,12.9555629 15.8654385,12.9555629 C16.4407809,12.9555629 18.4911565,12.6000436 18.4911565,10.1805366 Z" id="Shape" fill="#666666" transform="translate(9.593466, 10.102310) rotate(90.000000) translate(-9.593466, -10.102310) "></path>
            </g>
        </g>
    </g>
</svg>