<?xml version="1.0" encoding="UTF-8"?>
<svg width="19px" height="16px" viewBox="0 0 19 16" version="1.1" xmlns="http://www.w3.org/2000/svg" xmlns:xlink="http://www.w3.org/1999/xlink">
    <!-- Generator: Sketch 46.2 (44496) - http://www.bohemiancoding.com/sketch -->
    <title>iconified</title>
    <desc>Created with Sketch.</desc>
    <defs></defs>
    <g id="Page-1" stroke="none" stroke-width="1" fill="none" fill-rule="evenodd">
        <g id="Desktop" transform="translate(-902.000000, -394.000000)">
            <g id="iconified" transform="translate(901.000000, 392.000000)">
                <rect id="Rectangle-path" x="0" y="0" width="20" height="20"></rect>
                <path d="M5.766,4.075 C1.983,6.271 2.2,9.847 2.329,11.171 C7.217,5.381 14.529,5.662 14.529,5.662 C14.529,5.662 4.164,9.217 1.121,16.346 C0.88,16.909 2.249,17.64 2.56,16.975 C3.493,14.993 4.791,13.505 4.791,13.505 C6.707,14.218 10.021,15.054 12.371,13.401 C15.492,11.205 15.173,6.337 19.628,3.966 C20.67,3.412 10.896,1.098 5.766,4.075 L5.766,4.075 Z" id="Shape" fill="#666666"></path>
            </g>
        </g>
    </g>
</svg>