<?xml version="1.0" encoding="UTF-8"?>
<svg width="13px" height="21px" viewBox="0 0 13 21" version="1.1" xmlns="http://www.w3.org/2000/svg" xmlns:xlink="http://www.w3.org/1999/xlink">
    <!-- Generator: Sketch 46.2 (44496) - http://www.bohemiancoding.com/sketch -->
    <title>microphone</title>
    <desc>Created with Sketch.</desc>
    <defs></defs>
    <g id="Page-1" stroke="none" stroke-width="1" fill="none" fill-rule="evenodd">
        <g id="Desktop" transform="translate(-919.000000, -517.000000)">
            <g id="microphone" transform="translate(916.000000, 517.000000)">
                <rect id="Rectangle-path" x="0" y="1" width="20" height="20"></rect>
                <g id="Group" transform="translate(3.000000, 0.000000)" fill="#666666">
                    <path d="M12.528,7.787 L11.934,7.787 C11.716,7.787 11.538,7.965 11.538,8.183 L11.538,10.912 C11.538,12.236 10.495,14.476 6.587,14.476 C2.679,14.476 1.636,12.236 1.636,10.912 L1.636,8.183 C1.636,7.965 1.458,7.787 1.24,7.787 L0.646,7.787 C0.428,7.787 0.25,7.965 0.25,8.183 L0.25,10.912 C0.25,13.127 1.876,15.497 5.597,15.823 L5.597,18.437 L3.022,18.437 C2.805,18.437 2.626,18.615 2.626,18.833 L2.626,20.021 C2.626,20.239 2.805,20.417 3.022,20.417 L10.151,20.417 C10.369,20.417 10.547,20.239 10.547,20.021 L10.547,18.833 C10.547,18.615 10.369,18.437 10.151,18.437 L7.577,18.437 L7.577,15.823 C11.297,15.497 12.923,13.127 12.923,10.912 L12.923,8.183 C12.924,7.965 12.746,7.787 12.528,7.787 L12.528,7.787 Z" id="Shape"></path>
                    <path d="M6.587,12.497 C8.91,12.497 9.557,11.543 9.557,10.913 L9.557,7.788 L3.617,7.788 L3.617,10.913 C3.617,11.542 4.264,12.497 6.587,12.497 L6.587,12.497 Z" id="Shape"></path>
                    <path d="M9.558,2.199 C9.558,1.569 8.911,0.615 6.588,0.615 C4.264,0.615 3.618,1.569 3.618,2.199 L3.618,6.4 L9.558,6.4 L9.558,2.199 L9.558,2.199 Z" id="Shape"></path>
                </g>
            </g>
        </g>
    </g>
</svg>