<?xml version="1.0" encoding="UTF-8"?>
<svg width="20px" height="18px" viewBox="0 0 20 18" version="1.1" xmlns="http://www.w3.org/2000/svg" xmlns:xlink="http://www.w3.org/1999/xlink">
    <!-- Generator: Sketch 46.2 (44496) - http://www.bohemiancoding.com/sketch -->
    <title>move-mode</title>
    <desc>Created with Sketch.</desc>
    <defs></defs>
    <g id="Page-1" stroke="none" stroke-width="1" fill="none" fill-rule="evenodd">
        <g id="Desktop" transform="translate(-759.000000, -558.000000)">
            <g id="move-mode" transform="translate(759.000000, 557.000000)">
                <rect id="Rectangle-path" x="0" y="0" width="20" height="20"></rect>
                <path d="M15.006,6.866 L15.706,6.866 L15.706,8.859 L19.865,5.295 L15.706,1.731 L15.706,4.095 L15.006,4.095 C11.349,4.095 9.287,6.805 7.467,9.196 C5.831,11.346 4.418,13.204 2.134,13.204 L0.061,13.204 L0.061,15.976 L2.134,15.976 C5.792,15.976 7.853,13.266 9.673,10.874 C11.31,8.724 12.724,6.866 15.006,6.866 L15.006,6.866 Z M5.42,8.613 C5.576,8.411 5.733,8.205 5.892,7.996 C6.279,7.488 6.688,6.951 7.131,6.416 C5.823,5.194 4.245,4.291 2.135,4.291 L0.062,4.291 L0.062,7.063 L2.135,7.063 C3.449,7.064 4.475,7.682 5.42,8.613 L5.42,8.613 Z M15.706,13.401 L15.006,13.401 C13.613,13.401 12.544,12.707 11.55,11.679 C11.45,11.809 11.35,11.94 11.25,12.073 C10.813,12.647 10.344,13.262 9.826,13.872 C11.169,15.184 12.797,16.174 15.007,16.174 L15.707,16.174 L15.707,18.55 L19.866,14.986 L15.707,11.422 L15.707,13.401 L15.706,13.401 Z" id="Shape" fill="#666666"></path>
            </g>
        </g>
    </g>
</svg>