<?xml version="1.0" encoding="UTF-8"?>
<svg width="20px" height="17px" viewBox="0 0 20 17" version="1.1" xmlns="http://www.w3.org/2000/svg" xmlns:xlink="http://www.w3.org/1999/xlink">
    <!-- Generator: Sketch 46.2 (44496) - http://www.bohemiancoding.com/sketch -->
    <title>new</title>
    <desc>Created with Sketch.</desc>
    <defs></defs>
    <g id="Page-1" stroke="none" stroke-width="1" fill="none" fill-rule="evenodd">
        <g id="Desktop" transform="translate(-695.000000, -139.000000)">
            <g id="new" transform="translate(695.000000, 138.000000)">
                <rect id="Rectangle-path" x="0" y="0" width="20" height="20"></rect>
                <path d="M17.885,1.804 L2.043,1.804 C0.954,1.804 0.063,2.695 0.063,3.784 L0.063,15.665 C0.063,16.754 0.954,17.645 2.043,17.645 L17.885,17.645 C18.974,17.645 19.865,16.753 19.865,15.665 L19.865,3.784 C19.865,2.694 18.974,1.804 17.885,1.804 L17.885,1.804 Z M4.617,3.655 C5.028,3.655 5.36,3.978 5.36,4.378 C5.36,4.777 5.028,5.101 4.617,5.101 C4.207,5.101 3.875,4.777 3.875,4.378 C3.875,3.979 4.207,3.655 4.617,3.655 L4.617,3.655 Z M1.895,4.378 C1.895,3.979 2.228,3.655 2.638,3.655 C3.049,3.655 3.381,3.978 3.381,4.378 C3.381,4.777 3.049,5.101 2.638,5.101 C2.227,5.101 1.895,4.777 1.895,4.378 L1.895,4.378 Z M17.904,15.665 L2.023,15.665 L2.023,6.556 L17.904,6.556 L17.904,15.665 L17.904,15.665 Z M17.904,4.972 L6.003,4.972 L6.003,3.784 L17.904,3.784 L17.904,4.972 L17.904,4.972 Z" id="Shape" fill="#666666"></path>
            </g>
        </g>
    </g>
</svg>