<?xml version="1.0" encoding="UTF-8"?>
<svg width="229px" height="236px" viewBox="0 0 229 236" version="1.1" xmlns="http://www.w3.org/2000/svg" xmlns:xlink="http://www.w3.org/1999/xlink">
    <!-- Generator: Sketch 46.2 (44496) - http://www.bohemiancoding.com/sketch -->
    <title>nexusicon</title>
    <desc>Created with Sketch.</desc>
    <defs>
        <radialGradient cx="28.1269683%" cy="31.061596%" fx="28.1269683%" fy="31.061596%" r="87.8319631%" gradientTransform="translate(0.281270,0.310616),scale(1.000000,0.990054),rotate(57.158617),translate(-0.281270,-0.310616)" id="radialGradient-1">
            <stop stop-color="#FFFFFF" offset="0%"></stop>
            <stop stop-color="#000000" offset="100%"></stop>
        </radialGradient>
        <path d="M0.258650404,136.97441 C9.18795699,131.844992 21.4785336,131.820557 25.8771469,136.826349 C28.8401196,140.198326 26.8621981,170.649307 26.8621981,170.649307 C26.8621981,170.649307 29.1642962,141.777815 35.8096278,136.620322 C42.4549594,131.462828 42.9765252,153.532868 52.3998648,163.313412 C49.9388181,151.239211 44.6626514,140.985702 53.0405149,129.09434 C82.424928,87.386725 109.011035,106.97786 113.931486,140.281006 C118.851938,173.584152 90.0749026,189.793739 75.6385565,189.956032 C84.2294278,192.222647 104.817403,181.159628 106.45449,182.310284 C108.091577,183.46094 101.513533,197.040744 96.8351336,204.854287 C100.694939,202.624542 114.994531,178.960295 125.126992,181.008653 C141.110287,184.23983 161.309928,214.633361 150.13897,197.341083 C147.148701,192.712244 134.704184,180.336927 132.262,175.102268 C129.819827,169.867595 127.379048,165.633983 133.143515,159.713633 C139.930144,152.743507 147.173241,152.52109 161.537022,154.69681 C146.496827,144.125635 126.257266,153.43988 129.700387,137.416146 C133.143508,121.392413 140.247444,105.566559 174.910916,109.640366 C187.462423,111.115475 193.528352,114.14383 196.534716,124.838899 C196.930768,110.842747 185.241912,102.858611 185.794607,100.368114 C186.347301,97.8776167 201.429392,93.2004964 202.888176,85.8973124 C196.648354,96.2107693 167.733255,95.3570636 167.40416,78.9375633 C167.237077,70.6013169 183.053813,53.6579045 194.823311,55.6282069 C184.11987,49.3540507 174.931277,57.6334166 173.752275,55.6212618 C172.573273,53.6091069 179.342243,43.137395 174.796159,31.955211 C175.404766,41.9796624 158.512336,66.8178364 149.609729,73.8538223 C143.177289,78.9375642 127.033704,87.3408197 118.293885,78.9375642 C114.215899,75.0166176 108.356309,63.1390974 109.548352,57.08171 C115.151236,28.6105585 136.78885,21.3212907 148.126757,18.8251417 C143.423859,13.5660855 130.49886,22.9244499 129.97994,18.7969995 C129.698711,16.5601283 135.271157,12.1730086 134.976917,0.189234767 C131.556372,13.4716175 125.199427,17.3326155 121.544554,17.2418134 C117.88968,17.1510114 118.016309,6.3299077 106.179121,2.06832453 C116.116722,9.05307994 115.314303,20.2030406 109.011036,21.5498947 C102.707768,22.8967489 100.160589,13.6940622 86.6191249,13.1714283 C93.0110301,15.8317853 104.413638,35.6578631 104.413642,47.0690265 C104.413645,58.4801899 91.2376143,72.3856654 75.6385586,73.1878827 C60.0395029,73.9901 33.5990145,64.2721624 25.318209,46.3392359 C22.8980691,40.2429008 23.0756026,31.9841033 28.6484002,23.9951593 C7.83748621,39.1588177 25.4764546,57.8222017 21.7987001,60.5297507 C18.1209456,63.2372997 6.46070665,54.433153 2.43501708,39.3312369 C-0.660059098,55.1967013 16.3904985,65.4376416 15.6577828,69.3331286 C14.9250671,73.2286155 12.076651,78.2928684 2.88477045,77.0711886 C19.4667774,86.4242843 22.8895979,67.6992847 33.95333,69.0727702 C42.0943821,71.1005569 53.0405162,86.6912646 53.0405162,95.1386892 C53.0405162,103.586114 40.3974308,131.916973 29.2412724,132.003672 C13.4906326,125.1071 5.94341808,133.299931 0.258650404,136.97441 Z" id="path-2"></path>
        <filter x="-9.2%" y="-10.3%" width="128.3%" height="129.2%" filterUnits="objectBoundingBox" id="filter-3">
            <feMorphology radius="1.19565225" operator="dilate" in="SourceAlpha" result="shadowSpreadOuter1"></feMorphology>
            <feOffset dx="10" dy="10" in="shadowSpreadOuter1" result="shadowOffsetOuter1"></feOffset>
            <feGaussianBlur stdDeviation="7.5" in="shadowOffsetOuter1" result="shadowBlurOuter1"></feGaussianBlur>
            <feComposite in="shadowBlurOuter1" in2="SourceAlpha" operator="out" result="shadowBlurOuter1"></feComposite>
            <feColorMatrix values="0 0 0 0 0   0 0 0 0 0   0 0 0 0 0  0 0 0 0.5 0" type="matrix" in="shadowBlurOuter1"></feColorMatrix>
        </filter>
    </defs>
    <g id="Page-1" stroke="none" stroke-width="1" fill="none" fill-rule="evenodd">
        <g id="icon_256x256-copy" transform="translate(-19.000000, -14.000000)">
            <g id="nexusicon" transform="translate(22.000000, 23.000000)">
                <g id="path2416">
                    <use fill="black" fill-opacity="1" filter="url(#filter-3)" xlink:href="#path-2"></use>
                    <use fill="#5FBCD3" fill-rule="evenodd" xlink:href="#path-2"></use>
                    <use fill="url(#radialGradient-1)" fill-rule="evenodd" style="mix-blend-mode: color-burn;" xlink:href="#path-2"></use>
                    <use stroke="#000000" stroke-width="2.39130449" xlink:href="#path-2"></use>
                </g>
            </g>
        </g>
    </g>
</svg>