<?xml version="1.0" encoding="UTF-8" standalone="no"?>
<!-- Created with Inkscape (http://www.inkscape.org/) -->

<svg
   xmlns:dc="http://purl.org/dc/elements/1.1/"
   xmlns:cc="http://creativecommons.org/ns#"
   xmlns:rdf="http://www.w3.org/1999/02/22-rdf-syntax-ns#"
   xmlns:svg="http://www.w3.org/2000/svg"
   xmlns="http://www.w3.org/2000/svg"
   xmlns:sodipodi="http://sodipodi.sourceforge.net/DTD/sodipodi-0.dtd"
   xmlns:inkscape="http://www.inkscape.org/namespaces/inkscape"
   width="744.09448819"
   height="1052.3622047"
   id="svg2"
   sodipodi:version="0.32"
   inkscape:version="0.48.2 r9819"
   sodipodi:docname="nexus.svg"
   inkscape:output_extension="org.inkscape.output.svg.inkscape"
   version="1.1">
  <defs
     id="defs4">
    <inkscape:perspective
       sodipodi:type="inkscape:persp3d"
       inkscape:vp_x="0 : 526.18109 : 1"
       inkscape:vp_y="0 : 1000 : 0"
       inkscape:vp_z="744.09448 : 526.18109 : 1"
       inkscape:persp3d-origin="372.04724 : 350.78739 : 1"
       id="perspective10" />
    <inkscape:perspective
       id="perspective2410"
       inkscape:persp3d-origin="372.04724 : 350.78739 : 1"
       inkscape:vp_z="744.09448 : 526.18109 : 1"
       inkscape:vp_y="0 : 1000 : 0"
       inkscape:vp_x="0 : 526.18109 : 1"
       sodipodi:type="inkscape:persp3d" />
    <filter
       inkscape:collect="always"
       id="filter3517">
      <feGaussianBlur
         inkscape:collect="always"
         stdDeviation="2.1717435"
         id="feGaussianBlur3519" />
    </filter>
    <filter
       inkscape:collect="always"
       id="filter3588">
      <feGaussianBlur
         inkscape:collect="always"
         stdDeviation="3.2576152"
         id="feGaussianBlur3590" />
    </filter>
  </defs>
  <sodipodi:namedview
     id="base"
     pagecolor="#ffffff"
     bordercolor="#666666"
     borderopacity="1.0"
     gridtolerance="10000"
     guidetolerance="10"
     objecttolerance="10"
     inkscape:pageopacity="0.0"
     inkscape:pageshadow="2"
     inkscape:zoom="3.0070876"
     inkscape:cx="249.56349"
     inkscape:cy="554.83482"
     inkscape:document-units="px"
     inkscape:current-layer="layer1"
     showgrid="false"
     inkscape:window-width="1014"
     inkscape:window-height="773"
     inkscape:window-x="0"
     inkscape:window-y="0"
     inkscape:window-maximized="0" />
  <metadata
     id="metadata7">
    <rdf:RDF>
      <cc:Work
         rdf:about="">
        <dc:format>image/svg+xml</dc:format>
        <dc:type
           rdf:resource="http://purl.org/dc/dcmitype/StillImage" />
      </cc:Work>
    </rdf:RDF>
  </metadata>
  <g
     inkscape:groupmode="layer"
     id="layer6"
     inkscape:label="background"
     style="display:inline">
    <rect
       style="fill:#c3d4eb;fill-opacity:1;stroke:none;stroke-opacity:1"
       id="rect2397"
       width="178.24556"
       height="144.99078"
       x="168.94365"
       y="419.52866"
       ry="0" />
  </g>
  <g
     inkscape:groupmode="layer"
     id="layer4"
     inkscape:label="shadow"
     sodipodi:insensitive="true">
    <path
       style="fill:#000000;fill-rule:evenodd;stroke:none;stroke-width:1px;stroke-linecap:butt;stroke-linejoin:miter;stroke-opacity:1;display:inline;filter:url(#filter3588)"
       d="M 224.66418,507.49472 C 244.29727,498.0926 241.46597,530.43112 232.15452,537.05355 C 218.77013,541.79896 223.03794,557.10232 224.10061,545.80143 C 227.66289,542.18091 227.71388,541.51117 231.53619,541.86034 C 237.59387,542.41373 239.56732,547.87374 240.0695,550.02452 C 241.30821,555.32966 241.30862,547.42506 239.53235,545.64005 C 237.75604,543.85504 237.63047,539.19762 239.82708,537.1484 C 246.24578,531.94946 243.72443,542.76644 250.02905,547.64852 C 250.02905,547.64852 244.16837,537.20727 246.71601,525.78394 C 249.26365,514.36063 274.20632,509.83055 284.1933,514.53026 C 294.18029,519.22995 295.15685,521.59498 297.13284,529.33545 C 299.10882,537.07591 299.32469,543.22461 300.29376,552.61617 C 300.29376,552.61617 300.9618,549.60818 300.80793,545.06727 C 300.73313,542.85991 301.09394,540.13691 303.27747,543.42963 C 305.46098,546.72235 308.65034,553.5263 308.2431,552.01858 C 307.83588,550.51088 297.41267,532.32809 302.86238,529.94766 C 311.45895,526.1927 330.97435,533.79189 320.02271,529.36232 C 317.09115,528.1766 307.15595,526.47408 304.28354,524.82336 C 301.41113,523.17263 298.86854,521.99114 299.63907,517.31227 C 300.54624,511.80375 300.89378,514.8562 311.37344,505.59464 C 316.93462,500.67986 301.37589,518.75837 290.68435,507.98573 C 280.53584,497.24804 287.65056,476.07074 301.9754,475.3678 C 314.37825,479.46325 324.9918,472.2662 326.96553,472.18352 C 332.10048,471.96844 310.8629,476.22129 308.96376,473.5042 C 307.06463,470.7871 320.83609,468.43069 320.7262,462.59292 C 310.05331,472.11664 293.27865,472.37137 288.13631,458.07947 C 282.99396,443.78757 273.73965,434.43975 281.79274,448.1626 C 285.37159,454.26113 284.57555,470.32501 280.65667,475.5173 C 276.73778,480.70959 262.53741,484.97462 254.9303,476.51847 C 251.79366,470.89486 251.22158,462.12977 254.34019,458.17501 C 262.67353,450.48939 261.10243,443.19538 252.57746,436.28032 C 250.38958,434.76825 257.66343,443.52694 256.83152,447.63411 C 255.99963,451.7413 251.39221,456.07143 251.81253,452.23718 C 252.23283,448.40295 249.20919,431.64979 249.05746,437.67627 C 248.90574,443.70273 249.64119,451.65058 248.04949,454.05039 C 246.05415,457.05879 229.36671,441.5538 236.07854,450.12424 C 237.33402,451.72739 246.27749,456.34952 243.92053,462.12175 C 241.90251,467.06388 242.81569,465.81733 238.98144,465.39702 C 235.1472,464.97671 221.55549,469.87535 229.52359,468.11335 C 233.41133,467.25364 245.76488,468.07266 246.34982,477.31982 C 246.93477,486.56698 246.03956,494.3834 238.88944,498.82481 C 231.73934,503.26623 212.60428,499.47893 202.80433,493.79564 C 199.65898,491.73335 193.70042,486.80089 189.09347,483.64287 C 194.597,491.66784 215.28378,502.10362 214.38062,509.31073 C 212.02221,514.5883 194.32462,502.85922 196.55251,505.13942 C 200.03193,508.70054 207.6171,513.00759 214.54097,514.6014 C 219.27215,515.69047 209.11185,527.7006 213.51728,523.70585 C 220.34962,517.51045 218.9974,510.49892 224.66418,507.49472 z"
       id="path3522"
       sodipodi:nodetypes="cccssscczzzcssssssssccszczszcccsssssssszzcccsssc" />
  </g>
  <g
     inkscape:groupmode="layer"
     id="layer3"
     inkscape:label="fill"
     sodipodi:insensitive="true"
     style="display:inline">
    <path
       style="fill:#5fbcd3;fill-rule:evenodd;stroke:none;stroke-width:1px;stroke-linecap:butt;stroke-linejoin:miter;stroke-opacity:1;display:inline;filter:url(#filter3517)"
       d="M 221.49095,504.37517 C 241.12404,494.97305 238.29274,527.31157 228.98129,533.934 C 215.5969,538.67941 219.86471,553.98277 220.92738,542.68188 C 224.48966,539.06136 224.54065,538.39162 228.36296,538.74079 C 234.42064,539.29418 236.39409,544.75419 236.89627,546.90497 C 238.13498,552.21011 238.13539,544.30551 236.35912,542.5205 C 234.58281,540.73549 234.45724,536.07807 236.65385,534.02885 C 243.07255,528.82991 240.5512,539.64689 246.85582,544.52897 C 246.85582,544.52897 240.99514,534.08772 243.54278,522.66439 C 246.09042,511.24108 271.03309,506.711 281.02007,511.41071 C 291.00706,516.1104 291.98362,518.47543 293.95961,526.2159 C 295.93559,533.95636 296.15146,540.10506 297.12053,549.49662 C 297.12053,549.49662 297.78857,546.48863 297.6347,541.94772 C 297.5599,539.74036 297.92071,537.01736 300.10424,540.31008 C 302.28775,543.6028 305.47711,550.40675 305.06987,548.89903 C 304.66265,547.39133 294.23944,529.20854 299.68915,526.82811 C 308.28572,523.07315 327.80112,530.67234 316.84948,526.24277 C 313.91792,525.05705 303.98272,523.35453 301.11031,521.70381 C 298.2379,520.05308 295.69531,518.87159 296.46584,514.19272 C 297.37301,508.6842 297.72055,511.73665 308.20021,502.47509 C 313.76139,497.56031 298.20266,515.63882 287.51112,504.86618 C 277.36261,494.12849 284.47733,472.95119 298.80217,472.24825 C 311.20502,476.3437 321.81857,469.14665 323.7923,469.06397 C 328.92725,468.84889 307.68967,473.10174 305.79053,470.38465 C 303.8914,467.66755 317.66286,465.31114 317.55297,459.47337 C 306.88008,468.99709 290.10542,469.25182 284.96308,454.95992 C 279.82073,440.66802 270.56642,431.3202 278.61951,445.04305 C 282.19836,451.14158 281.40232,467.20546 277.48344,472.39775 C 273.56455,477.59004 259.36418,481.85507 251.75707,473.39892 C 248.62043,467.77531 248.04835,459.01022 251.16696,455.05546 C 259.5003,447.36984 257.9292,440.07583 249.40423,433.16077 C 247.21635,431.6487 254.4902,440.40739 253.65829,444.51456 C 252.8264,448.62175 248.21898,452.95188 248.6393,449.11763 C 249.0596,445.2834 246.03596,428.53024 245.88423,434.55672 C 245.73251,440.58318 246.46796,448.53103 244.87626,450.93084 C 242.88092,453.93924 226.19348,438.43425 232.90531,447.00469 C 234.16079,448.60784 243.10426,453.22997 240.7473,459.0022 C 238.72928,463.94433 239.64246,462.69778 235.80821,462.27747 C 231.97397,461.85716 218.38226,466.7558 226.35036,464.9938 C 230.2381,464.13409 242.59165,464.95311 243.17659,474.20027 C 243.76154,483.44743 242.86633,491.26385 235.71621,495.70526 C 228.56611,500.14668 209.43105,496.35938 199.6311,490.67609 C 196.48575,488.6138 190.52719,483.68134 185.92024,480.52332 C 191.42377,488.54829 212.11055,498.98407 211.20739,506.19118 C 208.84898,511.46875 191.15139,499.73967 193.37928,502.01987 C 196.8587,505.58099 204.44387,509.88804 211.36774,511.48185 C 216.09892,512.57092 205.93862,524.58105 210.34405,520.5863 C 217.17639,514.3909 215.82417,507.37937 221.49095,504.37517 z"
       id="path2445"
       sodipodi:nodetypes="cccssscczzzcssssssssccszczszcccsssssssszzcccsssc" />
  </g>
  <g
     inkscape:groupmode="layer"
     id="layer2"
     inkscape:label="neuron"
     style="display:inline"
     sodipodi:insensitive="true">
    <path
       style="fill:none;fill-rule:evenodd;stroke:#000000;stroke-width:1px;stroke-linecap:butt;stroke-linejoin:miter;stroke-opacity:1"
       d="M 220.91877,503.88897 C 240.55186,494.48685 237.72056,526.82537 228.40911,533.4478 C 215.02472,538.19321 219.29253,553.49657 220.3552,542.19568 C 223.91748,538.57516 223.96847,537.90542 227.79078,538.25459 C 233.84846,538.80798 235.82191,544.26799 236.32409,546.41877 C 237.5628,551.72391 237.56321,543.81931 235.78694,542.0343 C 234.01063,540.24929 233.88506,535.59187 236.08167,533.54265 C 242.50037,528.34371 239.97902,539.16069 246.28364,544.04277 C 246.28364,544.04277 240.42296,533.60152 242.9706,522.17819 C 245.51824,510.75488 270.46091,506.2248 280.44789,510.92451 C 290.43488,515.6242 291.41144,517.98923 293.38743,525.7297 C 295.36341,533.47016 295.57928,539.61886 296.54835,549.01042 C 296.54835,549.01042 297.21639,546.00243 297.06252,541.46152 C 296.98772,539.25416 297.34853,536.53116 299.53206,539.82388 C 301.71557,543.1166 304.90493,549.92055 304.49769,548.41283 C 304.09047,546.90513 293.66726,528.72234 299.11697,526.34191 C 307.71354,522.58695 327.22894,530.18614 316.2773,525.75657 C 313.34574,524.57085 303.41054,522.86833 300.53813,521.21761 C 297.66572,519.56688 295.12313,518.38539 295.89366,513.70652 C 296.80083,508.198 297.14837,511.25045 307.62803,501.98889 C 313.18921,497.07411 297.63048,515.15262 286.93894,504.37998 C 276.79043,493.64229 283.90515,472.46499 298.22999,471.76205 C 310.63284,475.8575 321.24639,468.66045 323.22012,468.57777 C 328.35507,468.36269 307.11749,472.61554 305.21835,469.89845 C 303.31922,467.18135 317.09068,464.82494 316.98079,458.98717 C 306.3079,468.51089 289.53324,468.76562 284.3909,454.47372 C 279.24855,440.18182 269.99424,430.834 278.04733,444.55685 C 281.62618,450.65538 280.83014,466.71926 276.91126,471.91155 C 272.99237,477.10384 258.792,481.36887 251.18489,472.91272 C 248.04825,467.28911 247.47617,458.52402 250.59478,454.56926 C 258.92812,446.88364 257.35702,439.58963 248.83205,432.67457 C 246.64417,431.1625 253.91802,439.92119 253.08611,444.02836 C 252.25422,448.13555 247.6468,452.46568 248.06712,448.63143 C 248.48742,444.7972 245.46378,428.04404 245.31205,434.07052 C 245.16033,440.09698 245.89578,448.04483 244.30408,450.44464 C 242.30874,453.45304 225.6213,437.94805 232.33313,446.51849 C 233.58861,448.12164 242.53208,452.74377 240.17512,458.516 C 238.1571,463.45813 239.07028,462.21158 235.23603,461.79127 C 231.40179,461.37096 217.81008,466.2696 225.77818,464.5076 C 229.66592,463.64789 242.01947,464.46691 242.60441,473.71407 C 243.18936,482.96123 242.29415,490.77765 235.14403,495.21906 C 227.99393,499.66048 208.85887,495.87318 199.05892,490.18989 C 195.91357,488.1276 189.95501,483.19514 185.34806,480.03712 C 190.85159,488.06209 211.53837,498.49787 210.63521,505.70498 C 208.2768,510.98255 190.57921,499.25347 192.8071,501.53367 C 196.28652,505.09479 203.87169,509.40184 210.79556,510.99565 C 215.52674,512.08472 205.36644,524.09485 209.77187,520.1001 C 216.60421,513.9047 215.25199,506.89317 220.91877,503.88897 z"
       id="path2416"
       sodipodi:nodetypes="cccssscczzzcssssssssccszczszcccsssssssszzcccsssc" />
  </g>
  <g
     inkscape:groupmode="layer"
     id="layer5"
     inkscape:label="version"
     style="display:none">
    <text
       xml:space="preserve"
       style="font-size:14px;font-style:normal;font-variant:normal;font-weight:normal;font-stretch:normal;fill:#000000;fill-opacity:1;stroke:none;stroke-width:1px;stroke-linecap:butt;stroke-linejoin:miter;stroke-opacity:1;font-family:LMRoman12;-inkscape-font-specification:LMRoman12"
       x="269.36362"
       y="530.92743"
       id="text4001"><tspan
         sodipodi:role="line"
         x="269.36362"
         y="530.92743"
         id="tspan4005"
         style="font-size:10px;text-align:center;text-anchor:middle;fill:#d40000">version</tspan><tspan
         sodipodi:role="line"
         x="269.36362"
         y="543.42743"
         id="tspan4009"
         style="font-size:10px;text-align:center;text-anchor:middle;fill:#d40000">0.22</tspan></text>
  </g>
  <g
     inkscape:label="text"
     inkscape:groupmode="layer"
     id="layer1"
     style="display:inline">
    <text
       xml:space="preserve"
       style="font-size:18.09939766px;font-style:normal;font-variant:normal;font-weight:500;font-stretch:normal;text-align:start;line-height:125%;writing-mode:lr-tb;text-anchor:start;fill:#000080;fill-opacity:1;stroke:none;font-family:Apple Chancery;-inkscape-font-specification:Apple Chancery Medium"
       x="-150.21872"
       y="568.65668"
       id="text2440"
       transform="matrix(0.84226079,-0.57321023,0.64541093,0.74803892,0,0)"
       sodipodi:linespacing="125%"><tspan
         sodipodi:role="line"
         id="tspan2442"
         x="-150.21872"
         y="568.65668"
         style="font-size:18.09939766px;font-style:normal;font-variant:normal;font-weight:500;font-stretch:normal;text-align:start;line-height:125%;writing-mode:lr-tb;text-anchor:start;fill:#000080;font-family:Apple Chancery;-inkscape-font-specification:Apple Chancery Medium">Nexus</tspan></text>
  </g>
</svg>
