<?xml version="1.0" encoding="UTF-8"?>
<svg width="476px" height="478px" viewBox="0 0 476 478" version="1.1" xmlns="http://www.w3.org/2000/svg" xmlns:xlink="http://www.w3.org/1999/xlink">
    <!-- Generator: Sketch 46.2 (44496) - http://www.bohemiancoding.com/sketch -->
    <title>nexussplash</title>
    <desc>Created with Sketch.</desc>
    <defs>
        <radialGradient cx="28.1269683%" cy="31.061596%" fx="28.1269683%" fy="31.061596%" r="87.8319631%" gradientTransform="translate(0.281270,0.310616),scale(1.000000,0.995126),rotate(57.025096),translate(-0.281270,-0.310616)" id="radialGradient-1">
            <stop stop-color="#FFFFFF" offset="0%"></stop>
            <stop stop-color="#000000" offset="100%"></stop>
        </radialGradient>
        <path d="M61.2194126,274.953991 C28.2439352,260.588934 12.4431167,277.654002 0.541509467,285.307674 C19.2358705,274.62347 44.9673732,274.572575 54.1762929,284.999273 C60.3795608,292.022855 56.238592,355.45002 56.238592,355.45002 C56.238592,355.45002 61.0582556,295.312814 74.9708957,284.570133 C88.8835357,273.827453 89.9754839,319.797731 109.70415,340.169887 C104.551713,315.020209 95.0480245,294.695879 111.045413,268.894064 C156.641221,195.353647 223.152063,250.211196 238.526511,292.19507 C253.900959,334.178945 188.580461,395.326471 158.356584,395.664515 C176.342398,400.385709 219.445303,377.34225 222.872702,379.738982 C226.3001,382.135714 212.528333,410.421452 202.733654,426.69649 C210.814527,422.052094 240.752097,372.761199 261.965378,377.027779 C295.42794,383.758086 337.71783,447.065586 314.330356,411.047036 C308.069941,401.405504 282.016149,375.628625 276.903203,364.725213 C271.790278,353.821771 266.680272,345.003467 278.748738,332.671812 C292.957197,318.153549 308.121316,317.69027 338.193272,322.222135 C306.70518,300.203153 261.814938,321.225109 271.540219,286.227778 C281.2655,251.230447 335.275299,227.884141 366.192805,228.372859 C392.644603,228.790987 405.170196,237.753246 411.464308,260.030292 C412.293479,230.877332 387.821738,214.246961 388.978857,209.059438 C390.135976,203.871914 421.711782,194.129815 424.765885,178.917817 C411.70222,200.399993 351.165681,198.621786 350.476689,164.421168 C350.126885,147.057377 383.240741,111.765489 407.881317,115.869485 C385.472634,102.800876 366.235432,120.04619 363.767078,115.855018 C361.298724,111.663847 375.470214,89.8520373 365.952549,66.5603664 C367.226727,87.440565 335.746051,146.53237 313.222338,153.832108 C297.864527,158.809419 263.008427,169.948375 244.710777,152.445009 C236.173119,144.277964 226.854342,131.51412 229.349998,118.897025 C241.080173,59.5936999 286.380598,44.4106883 310.117594,39.2113926 C300.271626,28.2571634 273.211899,47.7499517 272.12549,39.1527746 C271.53671,34.4935356 283.203161,25.3554863 282.587142,0.394162174 C275.425903,28.0603934 262.117028,36.1025698 254.465199,35.9134358 C246.81337,35.7243019 247.078478,13.1847346 222.29619,4.30816865 C243.101512,18.8569031 241.421571,42.0814553 228.225075,44.8868539 C215.028579,47.6922526 209.695815,28.5237295 181.345459,27.4351214 C194.727526,32.9764503 232.680429,66.8564441 218.599989,98.0413381 C204.519548,129.226232 166.895779,152.667311 136.310344,150.996274 C105.724948,149.325309 70.3427643,133.874211 53.0061026,96.5212378 C47.9393072,83.8230177 48.3109906,66.6205468 59.9781777,49.9801612 C16.4085302,81.564952 53.337405,120.439415 45.6376726,126.079042 C37.9379403,131.718668 13.52611,113.380275 5.09794217,81.9240886 C-1.38189713,114.97069 34.315083,136.301819 32.7810723,144.415834 C31.2470617,152.529848 25.2836289,163.078316 6.03954404,160.533646 C40.7555684,180.01546 47.9215721,141.012656 71.0845579,143.873526 C109.971118,153.510094 102.80138,274.632485 61.2194126,274.953991 L61.2194126,274.953991 Z" id="path-2"></path>
        <filter x="-8.7%" y="-9.2%" width="126.9%" height="127.3%" filterUnits="objectBoundingBox" id="filter-3">
            <feMorphology radius="2" operator="dilate" in="SourceAlpha" result="shadowSpreadOuter1"></feMorphology>
            <feOffset dx="20" dy="20" in="shadowSpreadOuter1" result="shadowOffsetOuter1"></feOffset>
            <feGaussianBlur stdDeviation="15" in="shadowOffsetOuter1" result="shadowBlurOuter1"></feGaussianBlur>
            <feComposite in="shadowBlurOuter1" in2="SourceAlpha" operator="out" result="shadowBlurOuter1"></feComposite>
            <feColorMatrix values="0 0 0 0 0   0 0 0 0 0   0 0 0 0 0  0 0 0 0.5 0" type="matrix" in="shadowBlurOuter1"></feColorMatrix>
        </filter>
    </defs>
    <g id="Page-1" stroke="none" stroke-width="1" fill="none" fill-rule="evenodd">
        <g id="icon_512x512-copy" transform="translate(-34.000000, -34.000000)">
            <g id="nexussplash" transform="translate(40.000000, 48.000000)">
                <g id="path2416">
                    <use fill="black" fill-opacity="1" filter="url(#filter-3)" xlink:href="#path-2"></use>
                    <use fill="#5FBCD3" fill-rule="evenodd" xlink:href="#path-2"></use>
                    <use fill="url(#radialGradient-1)" fill-rule="evenodd" style="mix-blend-mode: color-burn;" xlink:href="#path-2"></use>
                    <use stroke="#000000" stroke-width="4" xlink:href="#path-2"></use>
                </g>
                <text id="Nexus" style="mix-blend-mode: luminosity;" font-family="AvenirNextCondensed-Medium, Avenir Next Condensed" font-size="64" font-style="condensed" font-weight="400" letter-spacing="0.0982456133" fill="#E0DFE0">
                    <tspan x="147.965596" y="215">Nexus</tspan>
                </text>
            </g>
        </g>
    </g>
</svg>