<?xml version="1.0" encoding="UTF-8"?>
<svg width="21px" height="19px" viewBox="0 0 21 19" version="1.1" xmlns="http://www.w3.org/2000/svg" xmlns:xlink="http://www.w3.org/1999/xlink">
    <!-- Generator: Sketch 46.2 (44496) - http://www.bohemiancoding.com/sketch -->
    <title>open</title>
    <desc>Created with Sketch.</desc>
    <defs></defs>
    <g id="Page-1" stroke="none" stroke-width="1" fill="none" fill-rule="evenodd">
        <g id="Desktop" transform="translate(-734.000000, -138.000000)">
            <g id="open" transform="translate(734.000000, 138.000000)">
                <rect id="Rectangle-path" x="1" y="0" width="20" height="20"></rect>
                <path d="M18.488,0.813 L2.647,0.813 C1.558,0.813 0.667,1.704 0.667,2.793 L0.667,14.674 C0.667,15.763 1.558,16.634 2.647,16.634 L6.588,16.634 L6.588,14.693 L2.627,14.693 L2.627,5.565 L18.508,5.565 L18.508,14.693 L14.548,14.693 L14.548,16.634 L18.488,16.634 C19.577,16.634 20.468,15.762 20.468,14.674 L20.468,2.793 C20.469,1.705 19.578,0.813 18.488,0.813 L18.488,0.813 Z M3.241,4.11 C2.83,4.11 2.498,3.787 2.498,3.387 C2.498,2.987 2.83,2.664 3.241,2.664 C3.651,2.664 3.983,2.987 3.983,3.387 C3.983,3.787 3.651,4.11 3.241,4.11 L3.241,4.11 Z M5.221,4.11 C4.811,4.11 4.478,3.787 4.478,3.387 C4.478,2.987 4.811,2.664 5.221,2.664 C5.632,2.664 5.964,2.987 5.964,3.387 C5.964,3.787 5.632,4.11 5.221,4.11 L5.221,4.11 Z M18.508,4.002 L6.588,4.002 L6.588,2.774 L18.508,2.774 L18.508,4.002 L18.508,4.002 Z M10.517,7.916 L5.713,12.69 L8.683,12.69 L8.683,18.635 L12.35,18.635 L12.35,12.69 L15.32,12.69 L10.517,7.916 L10.517,7.916 Z" id="Shape" fill="#666666"></path>
            </g>
        </g>
    </g>
</svg>