<?xml version="1.0" encoding="UTF-8"?>
<svg width="12px" height="15px" viewBox="0 0 12 15" version="1.1" xmlns="http://www.w3.org/2000/svg" xmlns:xlink="http://www.w3.org/1999/xlink">
    <!-- Generator: Sketch 46.2 (44496) - http://www.bohemiancoding.com/sketch -->
    <title>pause</title>
    <desc>Created with Sketch.</desc>
    <defs></defs>
    <g id="Page-1" stroke="none" stroke-width="1" fill="none" fill-rule="evenodd">
        <g id="Desktop" transform="translate(-970.000000, -521.000000)">
            <g id="pause" transform="translate(966.000000, 518.000000)">
                <rect id="Rectangle-path" x="0" y="0" width="20" height="20"></rect>
                <g id="Group" transform="translate(4.000000, 3.000000)" fill="#666666">
                    <path d="M9.449,0.418 C8.464,0.418 7.667,0.721 7.667,1.705 L7.667,12.992 C7.667,13.975 8.464,14.279 9.449,14.279 C10.433,14.279 11.231,13.975 11.231,12.992 L11.231,1.705 C11.231,0.721 10.433,0.418 9.449,0.418 L9.449,0.418 Z" id="Shape"></path>
                    <path d="M2.518,0.418 C1.533,0.418 0.736,0.721 0.736,1.705 L0.736,12.992 C0.736,13.975 1.533,14.279 2.518,14.279 C3.502,14.279 4.3,13.975 4.3,12.992 L4.3,1.705 C4.3,0.721 3.502,0.418 2.518,0.418 L2.518,0.418 Z" id="Shape"></path>
                </g>
            </g>
        </g>
    </g>
</svg>