<?xml version="1.0" encoding="UTF-8"?>
<svg width="60px" height="60px" viewBox="0 0 60 60" version="1.1" xmlns="http://www.w3.org/2000/svg" xmlns:xlink="http://www.w3.org/1999/xlink">
    <!-- Generator: Sketch 46.2 (44496) - http://www.bohemiancoding.com/sketch -->
    <title>pencil</title>
    <desc>Created with Sketch.</desc>
    <defs>
        <path d="M2.31903916,55.0623541 C-0.313604227,57.9027909 14.023391,58.2391837 20.4713087,51.8035244 C23.2084186,49.0753333 20.7642395,44.5786274 17.8289934,41.6522834 C14.8994083,38.7230677 9.60993278,35.7206898 7.7113816,38.4749375 C4.37936811,43.3087236 13.2364126,43.2832773 2.31903916,55.0623541 Z M18.8289934,22.6971287 C15.2199973,26.2024478 13.90812,28.5481104 12.818371,29.9725133 C12.3428441,30.5899461 12.9545672,30.8200128 13.2514401,30.9288161 C17.901949,32.6332182 18.9139944,32.8627431 22.784339,36.2092185 C26.6546835,39.5556938 26.8012833,41.879175 27.844354,45.7378653 C27.9278982,46.0469254 28.184016,46.6453478 28.8010687,46.1743759 C30.2304798,45.0859712 31.902587,43.1701518 35.3530638,39.5102767 C51.2042545,22.6971287 56.8113243,6.52701875 54.6346567,4.35882476 C52.4551587,2.18775898 33.9806964,7.98069439 18.8289934,22.6971287 Z" id="path-1"></path>
    </defs>
    <g id="Page-1" stroke="none" stroke-width="1" fill="none" fill-rule="evenodd">
        <g id="Desktop" transform="translate(-835.000000, -100.000000)">
            <g id="pencil" transform="translate(835.000000, 100.000000)">
                <g id="Shape">
                    <use fill="#D8D8D8" fill-rule="evenodd" style="mix-blend-mode: exclusion;" xlink:href="#path-1"></use>
                    <use stroke="#666666" stroke-width="2.805" xlink:href="#path-1"></use>
                </g>
            </g>
        </g>
    </g>
</svg>