<?xml version="1.0" encoding="UTF-8"?>
<svg width="20px" height="17px" viewBox="0 0 20 17" version="1.1" xmlns="http://www.w3.org/2000/svg" xmlns:xlink="http://www.w3.org/1999/xlink">
    <!-- Generator: Sketch 46.2 (44496) - http://www.bohemiancoding.com/sketch -->
    <title>redo</title>
    <desc>Created with Sketch.</desc>
    <defs></defs>
    <g id="Page-1" stroke="none" stroke-width="1" fill="none" fill-rule="evenodd">
        <g id="Desktop" transform="translate(-865.000000, -499.000000)">
            <g id="redo" transform="translate(865.000000, 497.000000)">
                <rect id="Rectangle-path" x="0" y="0" width="20" height="20"></rect>
                <path d="M8.769,2.021 C13.17,2.021 16.748,5.546 16.857,9.937 L19.29,9.937 L15.648,13.996 L12.006,9.937 L14.833,9.937 C14.726,6.668 12.053,4.05 8.769,4.05 C5.416,4.05 2.699,6.777 2.699,10.139 C2.699,13.501 5.417,16.228 8.769,16.228 C10.113,16.228 11.354,15.789 12.36,15.046 L13.752,16.535 C12.377,17.613 10.648,18.257 8.769,18.257 C4.299,18.257 0.676,14.622 0.676,10.138 C0.676,5.654 4.299,2.021 8.769,2.021 L8.769,2.021 Z M7.478,5.784 L7.478,10.428 L10.454,13.403 L11.434,12.423 L8.865,9.854 L8.865,5.785 L7.478,5.785 L7.478,5.784 Z" id="Shape" fill="#666666"></path>
            </g>
        </g>
    </g>
</svg>