<?xml version="1.0" encoding="UTF-8"?>
<svg width="12px" height="20px" viewBox="0 0 12 20" version="1.1" xmlns="http://www.w3.org/2000/svg" xmlns:xlink="http://www.w3.org/1999/xlink">
    <!-- Generator: Sketch 46.2 (44496) - http://www.bohemiancoding.com/sketch -->
    <title>sound</title>
    <desc>Created with Sketch.</desc>
    <defs></defs>
    <g id="Page-1" stroke="none" stroke-width="1" fill="none" fill-rule="evenodd">
        <g id="Desktop" transform="translate(-906.000000, -546.000000)">
            <g id="sound" transform="translate(902.000000, 546.000000)">
                <rect id="Rectangle-path" x="0" y="0" width="20" height="20"></rect>
                <path d="M11.784,0.605 L10.195,0.605 L10.195,13.547 C9.317,13.209 8.18,13.204 7.059,13.611 C5.051,14.342 3.855,16.12 4.386,17.582 C4.918,19.044 6.978,19.636 8.987,18.905 C10.692,18.284 11.808,16.909 11.781,15.613 L11.784,5.029 C14.554,5.465 14.743,8.967 14.411,9.948 C14.285,10.32 14.507,10.598 14.926,9.948 C17.912,5.304 11.784,3.254 11.784,0.605 L11.784,0.605 Z" id="Shape" fill="#666666"></path>
            </g>
        </g>
    </g>
</svg>