<?xml version="1.0" encoding="UTF-8"?>
<svg width="11px" height="14px" viewBox="0 0 11 14" version="1.1" xmlns="http://www.w3.org/2000/svg" xmlns:xlink="http://www.w3.org/1999/xlink">
    <!-- Generator: Sketch 46.2 (44496) - http://www.bohemiancoding.com/sketch -->
    <title>text-underline</title>
    <desc>Created with Sketch.</desc>
    <defs></defs>
    <g id="Page-1" stroke="none" stroke-width="1" fill="none" fill-rule="evenodd">
        <g id="Desktop" transform="translate(-907.000000, -212.000000)">
            <g id="text-underline" transform="translate(903.000000, 209.000000)">
                <rect id="Rectangle-path" x="0" y="0.739130435" width="20" height="17.3913043"></rect>
                <path d="M14.0628397,3.48505435 L14.1902174,6.18546196 L13.8675272,6.18546196 C13.8052533,5.7099161 13.7203357,5.37024558 13.6127717,5.16644022 C13.4372727,4.83808713 13.2037492,4.59607188 12.9121943,4.44038723 C12.6206394,4.28470257 12.2370948,4.20686141 11.7615489,4.20686141 L10.139606,4.20686141 L10.139606,13.0044158 C10.139606,13.7120733 10.2160318,14.153645 10.3688859,14.329144 C10.5840138,14.5669169 10.9151925,14.6858016 11.3624321,14.6858016 L11.7615489,14.6858016 L11.7615489,15 L6.87873641,15 L6.87873641,14.6858016 L7.28634511,14.6858016 C7.77321349,14.6858016 8.11854518,14.5386111 8.32235054,14.2442255 C8.44689827,14.0630652 8.5091712,13.6497994 8.5091712,13.0044158 L8.5091712,4.20686141 L7.125,4.20686141 C6.58718028,4.20686141 6.20505095,4.24648964 5.97860054,4.32574728 C5.68421501,4.43331123 5.43229271,4.63994412 5.22282609,4.94565217 C5.01335946,5.25136022 4.8888136,5.66462602 4.84918478,6.18546196 L4.52649457,6.18546196 L4.66236413,3.48505435 L14.0628397,3.48505435 Z" id="T" fill="#666666"></path>
                <path d="M4.42970693,16.2970013 L14.758941,16.2970013" id="Path-977" stroke="#666666"></path>
            </g>
        </g>
    </g>
</svg>