<?xml version="1.0" encoding="UTF-8"?>
<svg width="17px" height="17px" viewBox="0 0 17 17" version="1.1" xmlns="http://www.w3.org/2000/svg" xmlns:xlink="http://www.w3.org/1999/xlink">
    <!-- Generator: Sketch 46.2 (44496) - http://www.bohemiancoding.com/sketch -->
    <title>text-clear</title>
    <desc>Created with Sketch.</desc>
    <defs></defs>
    <g id="Page-1" stroke="none" stroke-width="1" fill="none" fill-rule="evenodd">
        <g id="Desktop" transform="translate(-935.000000, -209.000000)">
            <g id="text-clear" transform="translate(934.000000, 208.000000)">
                <rect id="Rectangle-path" x="0" y="0" width="20" height="20"></rect>
                <path d="M9.5,1 C4.80510258,1 1,4.80599684 1,9.5 C1,14.1948974 4.80510258,18 9.5,18 C14.1948974,18 18,14.1948974 18,9.5 C18,4.80599684 14.1948974,1 9.5,1 L9.5,1 Z M14.0750658,4.92761704 L14.0732772,4.92582851 C14.0732772,4.92672278 14.0741715,4.92761704 14.0750658,4.92761704 L14.0750658,4.92761704 Z M3.03266702,9.5 C3.03266702,5.92830089 5.92830089,3.03266702 9.5,3.03266702 C11.0524461,3.03266702 12.4779064,3.58085218 13.5930563,4.49300368 L4.49300368,13.5930563 C3.58085218,12.4779064 3.03266702,11.0524461 3.03266702,9.5 L3.03266702,9.5 Z M4.92672278,14.072383 L4.92851131,14.0741715 C4.92761704,14.0732772 4.92761704,14.072383 4.92672278,14.072383 L4.92672278,14.072383 Z M9.5,15.967333 C7.94665965,15.967333 6.52209363,15.4191478 5.40783798,14.5078906 L14.5078906,5.40783798 C15.4200421,6.52209363 15.9682272,7.94755392 15.9682272,9.5 C15.9682272,13.0716991 13.0725934,15.967333 9.5,15.967333 L9.5,15.967333 Z" id="Shape" fill="#666666"></path>
            </g>
        </g>
    </g>
</svg>