<?xml version="1.0" encoding="UTF-8"?>
<svg width="18px" height="12px" viewBox="0 0 18 12" version="1.1" xmlns="http://www.w3.org/2000/svg" xmlns:xlink="http://www.w3.org/1999/xlink">
    <!-- Generator: Sketch 46.2 (44496) - http://www.bohemiancoding.com/sketch -->
    <title>text-font</title>
    <desc>Created with Sketch.</desc>
    <defs></defs>
    <g id="Page-1" stroke="none" stroke-width="1" fill="none" fill-rule="evenodd">
        <g id="Desktop" transform="translate(-861.000000, -234.000000)">
            <g id="text-font" transform="translate(860.000000, 230.000000)">
                <rect id="Rectangle-path" x="0" y="0.739130435" width="20" height="20"></rect>
                <path d="M8.176,7.538 C8.24133366,7.69666746 8.29033317,7.86233247 8.323,8.035 C8.35566683,8.20766753 8.372,8.37333254 8.372,8.532 C8.372,8.8586683 8.27166767,9.17366515 8.071,9.477 C7.87033233,9.78033485 7.61366823,10.0486655 7.301,10.282 C6.98833177,10.5153345 6.63600196,10.7019993 6.244,10.842 C5.85199804,10.9820007 5.46000196,11.052 5.068,11.052 C4.7879986,11.052 4.51033471,11.0240003 4.235,10.968 C3.95966529,10.9119997 3.71233443,10.8210006 3.493,10.695 C3.27366557,10.5689994 3.0940007,10.4103343 2.954,10.219 C2.8139993,10.0276657 2.744,9.7920014 2.744,9.512 C2.744,9.01733086 2.8839986,8.59500175 3.164,8.245 C3.4440014,7.89499825 3.80799776,7.59866788 4.256,7.356 C4.70400224,7.11333212 5.20566389,6.91966739 5.761,6.775 C6.31633611,6.63033261 6.86466396,6.51600042 7.406,6.432 C7.94733604,6.34799958 8.45599762,6.29433345 8.932,6.271 C9.40800238,6.24766655 9.79066522,6.236 10.08,6.236 C10.6586696,6.21733324 11.1649978,6.21499993 11.599,6.229 C12.0330022,6.24300007 12.4203316,6.25933324 12.761,6.278 C13.1016684,6.29666676 13.4026654,6.31533324 13.664,6.334 C13.9253346,6.35266676 14.1679989,6.36666662 14.392,6.376 L14.392,6.404 C13.8973309,6.53466732 13.416669,6.69099909 12.95,6.873 C12.483331,7.05500091 12.0400021,7.27899867 11.62,7.545 C11.1999979,7.81100133 10.8080018,8.12366487 10.444,8.483 C10.0799982,8.84233513 9.74866816,9.26466424 9.45,9.75 C9.20733212,10.1513353 8.97166781,10.5596646 8.743,10.975 C8.51433219,11.3903354 8.2833345,11.793998 8.05,12.186 C7.8166655,12.578002 7.57166795,12.9489982 7.315,13.299 C7.05833205,13.6490018 6.78300147,13.9546654 6.489,14.216 C6.19499853,14.4773346 5.87533506,14.6826659 5.53,14.832 C5.18466494,14.9813341 4.8020021,15.056 4.382,15.056 C4.02733156,15.056 3.72166795,14.9743342 3.465,14.811 C3.20833205,14.6476658 3.05200028,14.3746686 2.996,13.992 C3.19200098,13.9266663 3.34366613,13.8193341 3.451,13.67 C3.55833387,13.5206659 3.612,13.3386677 3.612,13.124 C3.612,12.8719987 3.52566753,12.6736674 3.353,12.529 C3.18033247,12.3843326 2.97266788,12.312 2.73,12.312 C2.5899993,12.312 2.45700063,12.342333 2.331,12.403 C2.20499937,12.463667 2.09766711,12.5429995 2.009,12.641 C1.92033289,12.7390005 1.84800028,12.8509994 1.792,12.977 C1.73599972,13.1030006 1.708,13.2359993 1.708,13.376 C1.708,13.6746682 1.7779993,13.9406655 1.918,14.174 C2.0580007,14.4073345 2.24933212,14.6009992 2.492,14.755 C2.73466788,14.9090008 3.01699839,15.0256663 3.339,15.105 C3.66100161,15.1843337 4.00399818,15.224 4.368,15.224 C5.19867082,15.224 5.94533002,15.1050012 6.608,14.867 C7.27066998,14.6289988 7.87266396,14.2953355 8.414,13.866 C8.95533604,13.4366645 9.44066452,12.9256696 9.87,12.333 C10.2993355,11.7403304 10.6913316,11.0893369 11.046,10.38 C11.3446682,9.79199706 11.6386652,9.27633555 11.928,8.833 C12.2173348,8.38966445 12.5183318,8.00933492 12.831,7.692 C13.1436682,7.37466508 13.4749983,7.11333436 13.825,6.908 C14.1750017,6.70266564 14.5553313,6.54400056 14.966,6.432 C15.2086679,6.46000014 15.4489988,6.48566655 15.687,6.509 C15.9250012,6.53233345 16.1886652,6.544 16.478,6.544 C17.0473362,6.544 17.4649987,6.48100063 17.731,6.355 C17.9970013,6.22899937 18.13,6.03066802 18.13,5.76 C18.13,5.4799986 18.0273344,5.2933338 17.822,5.2 C17.6166656,5.1066662 17.280669,5.05066676 16.814,5.032 C16.5526654,5.02266662 16.2493351,5.01100007 15.904,4.997 C15.5586649,4.98299993 15.1923353,4.96900007 14.805,4.955 C14.4176647,4.94099993 14.0186687,4.92700007 13.608,4.913 C13.1973313,4.89899993 12.796002,4.892 12.404,4.892 C10.9479927,4.892 9.6133394,5.00633219 8.4,5.235 C7.1866606,5.46366781 6.14600434,5.78099797 5.278,6.187 C4.40999566,6.59300203 3.73333576,7.07833051 3.248,7.643 C2.76266424,8.20766949 2.52,8.83066326 2.52,9.512 C2.52,9.8853352 2.59233261,10.2119986 2.737,10.492 C2.88166739,10.7720014 3.0706655,11.0053324 3.304,11.192 C3.5373345,11.3786676 3.79866522,11.5186662 4.088,11.612 C4.37733478,11.7053338 4.66666522,11.752 4.956,11.752 C5.39466886,11.752 5.82866452,11.6726675 6.258,11.514 C6.68733548,11.3553325 7.06999832,11.1360014 7.406,10.856 C7.74200168,10.5759986 8.01499895,10.240002 8.225,9.848 C8.43500105,9.45599804 8.54,9.026669 8.54,8.56 C8.54,8.4199993 8.51900021,8.24033443 8.477,8.021 C8.43499979,7.80166557 8.38600028,7.62666732 8.33,7.496 L8.176,7.538 Z" id="T" fill="#666666"></path>
            </g>
        </g>
    </g>
</svg>