<?xml version="1.0" encoding="UTF-8"?>
<svg width="11px" height="12px" viewBox="0 0 11 12" version="1.1" xmlns="http://www.w3.org/2000/svg" xmlns:xlink="http://www.w3.org/1999/xlink">
    <!-- Generator: Sketch 46.2 (44496) - http://www.bohemiancoding.com/sketch -->
    <title>text-italic</title>
    <desc>Created with Sketch.</desc>
    <defs></defs>
    <g id="Page-1" stroke="none" stroke-width="1" fill="none" fill-rule="evenodd">
        <g id="Desktop" transform="translate(-888.000000, -212.000000)">
            <g id="text-italic" transform="translate(883.000000, 209.000000)">
                <rect id="Rectangle-path" x="0" y="0.739130435" width="20" height="17.3913043"></rect>
                <path d="M6.54755435,3.48505435 L15.2941576,3.48505435 L14.3515625,6.54211957 L14.0288723,6.54211957 C14.1364362,6.09488001 14.1902174,5.69576715 14.1902174,5.34476902 C14.1902174,4.93149703 14.0628409,4.62013239 13.8080842,4.41066576 C13.6156014,4.25215048 13.1202486,4.17289402 12.3220109,4.17289402 L11.4133832,4.17289402 L9.13756793,12.1042799 C8.84884367,13.1006617 8.7044837,13.7148992 8.7044837,13.9470109 C8.7044837,14.1621388 8.7950625,14.3390505 8.97622283,14.4777514 C9.15738315,14.6164522 9.47723956,14.6858016 9.93580163,14.6858016 L10.3264266,14.6858016 L10.2245245,15 L5.21433424,15 L5.30774457,14.6858016 L5.52853261,14.6858016 C5.9701109,14.6858016 6.30978142,14.6150369 6.54755435,14.4735054 C6.71173089,14.377264 6.86033674,14.2031829 6.99337636,13.9512568 C7.12641597,13.6993307 7.31181946,13.1657649 7.54959239,12.3505435 L9.93580163,4.17289402 L9.24796196,4.17289402 C8.58559451,4.17289402 8.05202874,4.25781165 7.64724864,4.42764946 C7.24246854,4.59748726 6.91553567,4.84374839 6.66644022,5.16644022 C6.41734477,5.48913205 6.21354246,5.94768725 6.05502717,6.54211957 L5.7408288,6.54211957 L6.54755435,3.48505435 Z" id="T" fill="#666666"></path>
            </g>
        </g>
    </g>
</svg>