<?xml version="1.0" encoding="UTF-8"?>
<svg width="11px" height="12px" viewBox="0 0 11 12" version="1.1" xmlns="http://www.w3.org/2000/svg" xmlns:xlink="http://www.w3.org/1999/xlink">
    <!-- Generator: Sketch 46.2 (44496) - http://www.bohemiancoding.com/sketch -->
    <title>text-bold</title>
    <desc>Created with Sketch.</desc>
    <defs></defs>
    <g id="Page-1" stroke="none" stroke-width="1" fill="none" fill-rule="evenodd">
        <g id="Desktop" transform="translate(-865.000000, -212.000000)">
            <g id="text-bold" transform="translate(861.000000, 209.000000)">
                <rect id="Rectangle-path" x="0" y="0.739130435" width="20" height="17.3913043"></rect>
                <path d="M14.9714674,3.48505435 L14.9714674,6.6015625 L14.6657609,6.6015625 C14.4846005,5.88258246 14.2836288,5.36600021 14.0628397,5.05180027 C13.8420505,4.73760033 13.5391776,4.48709333 13.154212,4.30027174 C12.9390841,4.19836906 12.5626159,4.14741848 12.0247962,4.14741848 L11.1671196,4.14741848 L11.1671196,13.0298913 C11.1671196,13.6186624 11.1996713,13.9866388 11.2647758,14.1338315 C11.3298803,14.2810243 11.4572568,14.409816 11.646909,14.5202106 C11.8365612,14.6306052 12.09556,14.6858016 12.423913,14.6858016 L12.8060462,14.6858016 L12.8060462,15 L6.77683424,15 L6.77683424,14.6858016 L7.15896739,14.6858016 C7.49298174,14.6858016 7.76188757,14.6263593 7.96569293,14.5074728 C8.1128857,14.4282152 8.22893979,14.292347 8.3138587,14.0998641 C8.37613256,13.9639939 8.40726902,13.6073398 8.40726902,13.0298913 L8.40726902,4.14741848 L7.57506793,4.14741848 C6.79947529,4.14741848 6.23618835,4.31159256 5.88519022,4.63994565 C5.39266058,5.09850773 5.08129594,5.75237347 4.95108696,6.6015625 L4.62839674,6.6015625 L4.62839674,3.48505435 L14.9714674,3.48505435 Z" id="T" fill="#666666"></path>
            </g>
        </g>
    </g>
</svg>