<?xml version="1.0" encoding="UTF-8"?>
<svg width="20px" height="17px" viewBox="0 0 20 17" version="1.1" xmlns="http://www.w3.org/2000/svg" xmlns:xlink="http://www.w3.org/1999/xlink">
    <!-- Generator: Sketch 46.2 (44496) - http://www.bohemiancoding.com/sketch -->
    <title>undo</title>
    <desc>Created with Sketch.</desc>
    <defs></defs>
    <g id="Page-1" stroke="none" stroke-width="1" fill="none" fill-rule="evenodd">
        <g id="Desktop" transform="translate(-835.000000, -499.000000)">
            <g id="undo" transform="translate(835.000000, 497.000000)">
                <rect id="Rectangle-path" x="0" y="0" width="20" height="20"></rect>
                <path d="M11.197,2.021 C6.796,2.021 3.218,5.546 3.109,9.937 L0.676,9.937 L4.318,13.996 L7.96,9.937 L5.133,9.937 C5.24,6.668 7.913,4.05 11.197,4.05 C14.55,4.05 17.267,6.777 17.267,10.139 C17.267,13.501 14.549,16.228 11.197,16.228 C9.853,16.228 8.612,15.789 7.606,15.046 L6.214,16.535 C7.589,17.613 9.318,18.257 11.197,18.257 C15.667,18.257 19.29,14.622 19.29,10.138 C19.29,5.654 15.667,2.021 11.197,2.021 L11.197,2.021 Z M10.478,5.784 L10.478,10.428 L13.454,13.403 L14.434,12.423 L11.865,9.854 L11.865,5.785 L10.478,5.785 L10.478,5.784 Z" id="Shape" fill="#666666"></path>
            </g>
        </g>
    </g>
</svg>