<?xml version="1.0" encoding="UTF-8"?>
<svg width="21px" height="15px" viewBox="0 0 21 15" version="1.1" xmlns="http://www.w3.org/2000/svg" xmlns:xlink="http://www.w3.org/1999/xlink">
    <!-- Generator: Sketch 46.2 (44496) - http://www.bohemiancoding.com/sketch -->
    <title>video</title>
    <desc>Created with Sketch.</desc>
    <defs></defs>
    <g id="Page-1" stroke="none" stroke-width="1" fill="none" fill-rule="evenodd">
        <g id="Desktop" transform="translate(-966.000000, -548.000000)">
            <g id="video" transform="translate(966.000000, 546.000000)">
                <rect id="Rectangle-path" x="0" y="0" width="20" height="20"></rect>
                <path d="M20.083,4.793 L20.083,3.605 C20.083,3.167 19.728,2.813 19.291,2.813 L1.47,2.813 C1.032,2.813 0.678,3.167 0.678,3.605 L0.678,4.793 L2.658,4.793 L2.658,6.773 L0.678,6.773 L0.678,8.753 L2.658,8.753 L2.658,10.733 L0.678,10.733 L0.678,12.713 L2.658,12.713 L2.658,14.692 L0.678,14.692 L0.678,15.88 C0.678,16.318 1.032,16.672 1.47,16.672 L19.291,16.672 C19.729,16.672 20.083,16.318 20.083,15.88 L20.083,14.692 L18.103,14.692 L18.103,12.713 L20.083,12.713 L20.083,10.733 L18.103,10.733 L18.103,8.753 L20.083,8.753 L20.083,6.773 L18.103,6.773 L18.103,4.793 L20.083,4.793 L20.083,4.793 Z M8.201,12.715 L8.201,6.774 L13.152,9.745 L8.201,12.715 L8.201,12.715 Z" id="Shape" fill="#666666"></path>
            </g>
        </g>
    </g>
</svg>