<?xml version="1.0" encoding="UTF-8"?>
<svg width="19px" height="17px" viewBox="0 0 19 17" version="1.1" xmlns="http://www.w3.org/2000/svg" xmlns:xlink="http://www.w3.org/1999/xlink">
    <!-- Generator: Sketch 46.2 (44496) - http://www.bohemiancoding.com/sketch -->
    <title>view-home</title>
    <desc>Created with Sketch.</desc>
    <defs></defs>
    <g id="Page-1" stroke="none" stroke-width="1" fill="none" fill-rule="evenodd">
        <g id="Desktop" transform="translate(-855.000000, -758.000000)">
            <g id="view-home" transform="translate(855.000000, 756.000000)">
                <rect id="Rectangle-path" x="0" y="0" width="20" height="20"></rect>
                <path d="M18.479,10.606 L10.535,2.654 C10.129,2.233 9.464,2.233 9.057,2.654 L1.113,10.606 C0.707,11.027 0.859,11.372 1.45,11.372 L3.106,11.372 L3.106,17.479 C3.106,17.921 3.125,18.279 3.922,18.279 L7.777,18.279 L7.777,12.154 L11.813,12.154 L11.813,18.279 L15.861,18.279 C16.468,18.279 16.485,17.921 16.485,17.479 L16.485,11.372 L18.141,11.372 C18.732,11.372 18.885,11.027 18.479,10.606 L18.479,10.606 Z" id="Shape" fill="#666666"></path>
            </g>
        </g>
    </g>
</svg>