<?xml version="1.0" encoding="UTF-8"?>
<svg width="19px" height="19px" viewBox="0 0 19 19" version="1.1" xmlns="http://www.w3.org/2000/svg" xmlns:xlink="http://www.w3.org/1999/xlink">
    <!-- Generator: Sketch 46.2 (44496) - http://www.bohemiancoding.com/sketch -->
    <title>view-index</title>
    <desc>Created with Sketch.</desc>
    <defs></defs>
    <g id="Page-1" stroke="none" stroke-width="1" fill="none" fill-rule="evenodd">
        <g id="Desktop" transform="translate(-789.000000, -758.000000)">
            <g id="view-index" transform="translate(788.000000, 758.000000)">
                <rect id="Rectangle-path" x="0" y="0" width="20" height="20"></rect>
                <path d="M10.069,0.428 C5.039,0.495 1.016,4.628 1.083,9.659 C1.15,14.687 5.283,18.711 10.313,18.645 C15.342,18.577 19.366,14.444 19.299,9.414 C19.232,4.385 15.1,0.361 10.069,0.428 L10.069,0.428 Z M11.079,3.463 C12.006,3.463 12.279,4.001 12.279,4.615 C12.279,5.383 11.664,6.093 10.616,6.093 C9.739,6.093 9.321,5.651 9.345,4.922 C9.346,4.308 9.86,3.463 11.079,3.463 L11.079,3.463 Z M8.705,15.229 C8.073,15.229 7.609,14.845 8.052,13.156 L8.779,10.161 C8.905,9.681 8.926,9.489 8.779,9.489 C8.589,9.489 7.767,9.821 7.282,10.147 L6.966,9.629 C8.506,8.343 10.275,7.589 11.034,7.589 C11.667,7.589 11.772,8.338 11.456,9.489 L10.625,12.638 C10.478,13.194 10.541,13.386 10.687,13.386 C10.877,13.386 11.499,13.155 12.111,12.675 L12.469,13.155 C10.972,14.652 9.338,15.229 8.705,15.229 L8.705,15.229 Z" id="Shape" fill="#666666"></path>
            </g>
        </g>
    </g>
</svg>