<?xml version="1.0" encoding="UTF-8"?>
<svg width="20px" height="18px" viewBox="0 0 20 18" version="1.1" xmlns="http://www.w3.org/2000/svg" xmlns:xlink="http://www.w3.org/1999/xlink">
    <!-- Generator: Sketch 46.2 (44496) - http://www.bohemiancoding.com/sketch -->
    <title>view-presentation</title>
    <desc>Created with Sketch.</desc>
    <defs></defs>
    <g id="Page-1" stroke="none" stroke-width="1" fill="none" fill-rule="evenodd">
        <g id="Desktop" transform="translate(-762.000000, -759.000000)">
            <g id="view-presentation" transform="translate(762.000000, 758.000000)">
                <rect id="Rectangle-path" x="0" y="0" width="20" height="20"></rect>
                <path d="M17.924,1.012 L2.082,1.012 C0.993,1.012 0.103,1.903 0.103,2.992 L0.103,13.883 C0.103,14.972 0.976,16.038 2.044,16.251 L6.373,17.117 C6.373,17.117 2.647,18.437 5.053,18.437 L14.954,18.437 C17.359,18.437 13.634,17.117 13.634,17.117 L17.963,16.251 C19.03,16.038 19.904,14.972 19.904,13.883 L19.904,2.992 C19.904,1.902 19.014,1.012 17.924,1.012 L17.924,1.012 Z M17.924,13.784 L2.082,13.784 L2.082,2.794 L17.924,2.794 L17.924,13.784 L17.924,13.784 Z" id="Shape" fill="#666666"></path>
            </g>
        </g>
    </g>
</svg>