<?xml version="1.0" encoding="UTF-8"?>
<svg width="16px" height="17px" viewBox="0 0 16 17" version="1.1" xmlns="http://www.w3.org/2000/svg" xmlns:xlink="http://www.w3.org/1999/xlink">
    <!-- Generator: Sketch 46.2 (44496) - http://www.bohemiancoding.com/sketch -->
    <title>zoom-select</title>
    <desc>Created with Sketch.</desc>
    <defs></defs>
    <g id="Page-1" stroke="none" stroke-width="1" fill="none" fill-rule="evenodd">
        <g id="Desktop" transform="translate(-873.000000, -394.000000)">
            <g id="zoom-select" transform="translate(871.000000, 392.000000)">
                <rect id="Rectangle-path" x="0" y="0" width="20" height="20"></rect>
                <path d="M17.474,15.722 L13.733,11.981 C14.296,11.054 14.622,9.965 14.622,8.801 C14.622,5.418 11.69,2.487 8.308,2.487 C4.926,2.487 2.183,5.23 2.183,8.613 C2.183,11.996 5.115,14.926 8.496,14.926 C9.621,14.926 10.675,14.621 11.58,14.093 L15.342,17.855 C15.71,18.223 16.307,18.223 16.675,17.855 L17.609,16.922 C17.975,16.553 17.842,16.09 17.474,15.722 L17.474,15.722 Z M4.066,8.612 C4.066,6.27 5.964,4.371 8.306,4.371 C10.649,4.371 12.736,6.458 12.736,8.801 C12.736,11.143 10.838,13.041 8.495,13.041 C6.153,13.041 4.066,10.954 4.066,8.612 L4.066,8.612 Z" id="Shape" fill="#666666"></path>
                <path d="M9,6 C9,6 9.56858515,6 10.7057554,6 L10.7057554,7.81673936" id="Path-2" stroke="#666666"></path>
                <path d="M6.05549196,5.94450804 C6.05549196,5.94450804 6.62407711,5.94450804 7.7612474,5.94450804 L7.7612474,7.7612474" id="Path-2-Copy" stroke="#666666" transform="translate(6.908370, 6.852878) rotate(-90.000000) translate(-6.908370, -6.852878) "></path>
                <path d="M6.13924963,9.60497065 C6.13924963,9.60497065 6.70783478,9.60497065 7.84500508,9.60497065 L7.84500508,11.42171" id="Path-2-Copy-2" stroke="#666666" opacity="0.659999967" transform="translate(6.992127, 10.513340) rotate(-180.000000) translate(-6.992127, -10.513340) "></path>
                <path d="M9.13924963,9.60497065 C9.13924963,9.60497065 9.70783478,9.60497065 10.8450051,9.60497065 L10.8450051,11.42171" id="Path-2-Copy-3" stroke="#666666" transform="translate(9.992127, 10.513340) rotate(-270.000000) translate(-9.992127, -10.513340) "></path>
            </g>
        </g>
    </g>
</svg>